# xmcd CD database file
#
# Track frame offsets:
#        150
#        16394
#        31243
#        46800
#        61595
#        76884
#        89924
#        106665
#        123632
#        136537
#        153245
#        175141
#        191829
#        209444
#        225856
#        240127
#        259168
#
# Disc length: 3679 seconds
#
# Revision: 0
# Processed by: cddbd v1.5.2PL0 Copyright (c) Steve Scherf et al.
# Submitted via: CUERipper 2.1.5
#
DISCID=ca0e5d11
DTITLE=Adam Brand - Milestones... 20 Years
DYEAR=2018
DGENRE=Country
TTITLE0=Milestones
TTITLE1=Party Down Under
TTITLE2=King of the Road
TTITLE3=Last Man Standing
TTITLE4=Grandpa's Piano
TTITLE5=Dirt Track Cowboys
TTITLE6=Good Friends
TTITLE7=Good Things in Life
TTITLE8=I Did What?
TTITLE9=New England Highway
TTITLE10=The Anzac
TTITLE11=She's Country
TTITLE12=Get Loud
TTITLE13=Cigarettes and Whiskey
TTITLE14=Get On Down the Road
TTITLE15=Comin' From - Khe Sanh
TTITLE16=Blame It On Eve
EXTD=
EXTT0=
EXTT1=
EXTT2=
EXTT3=
EXTT4=
EXTT5=
EXTT6=
EXTT7=
EXTT8=
EXTT9=
EXTT10=
EXTT11=
EXTT12=
EXTT13=
EXTT14=
EXTT15=
EXTT16=
PLAYORDER=
